HIERARCHY
ROOT mixamorig:Hips
{
	OFFSET -0.000008 104.274872 1.554316
	CHANNELS 6 Xposition Yposition Zposition Xrotation Yrotation Zrotation
	JOINT mixamorig:Spine
	{
		OFFSET -0.000005 10.181595 0.131519
		CHANNELS 6 Xposition Yposition Zposition Xrotation Yrotation Zrotation
		JOINT mixamorig:Spine1
		{
			OFFSET -0.000000 9.893959 -1.470707
			CHANNELS 6 Xposition Yposition Zposition Xrotation Yrotation Zrotation
			JOINT mixamorig:Spine2
			{
				OFFSET -0.000000 9.220757 -1.370641
				CHANNELS 6 Xposition Yposition Zposition Xrotation Yrotation Zrotation
				JOINT mixamorig:Neck
				{
					OFFSET 0.000001 16.740417 -2.049036
					CHANNELS 6 Xposition Yposition Zposition Xrotation Yrotation Zrotation
					JOINT mixamorig:Head
					{
						OFFSET 0.000000 9.617874 1.685006
						CHANNELS 6 Xposition Yposition Zposition Xrotation Yrotation Zrotation
						JOINT mixamorig:HeadTop_End
						{
							OFFSET 0.000002 22.037354 7.501101
							CHANNELS 6 Xposition Yposition Zposition Xrotation Yrotation Zrotation
							End Site
							{
								OFFSET 0.000168 2310.654297 -282.823242
							}
						}
					}
				}
				JOINT mixamorig:RightShoulder
				{
					OFFSET -4.569970 11.014908 -2.160885
					CHANNELS 6 Xposition Yposition Zposition Xrotation Yrotation Zrotation
					JOINT mixamorig:RightArm
					{
						OFFSET -10.592851 -0.524811 -2.232101
						CHANNELS 6 Xposition Yposition Zposition Xrotation Yrotation Zrotation
						JOINT mixamorig:RightForeArm
						{
							OFFSET -27.841511 0.000031 -0.000004
							CHANNELS 6 Xposition Yposition Zposition Xrotation Yrotation Zrotation
							JOINT mixamorig:RightHand
							{
								OFFSET -28.328831 -0.000015 0.000015
								CHANNELS 6 Xposition Yposition Zposition Xrotation Yrotation Zrotation
								JOINT mixamorig:RightHandThumb1
								{
									OFFSET -2.464806 -1.573990 2.681852
									CHANNELS 6 Xposition Yposition Zposition Xrotation Yrotation Zrotation
									JOINT mixamorig:RightHandThumb2
									{
										OFFSET -3.215179 -1.872803 1.924282
										CHANNELS 6 Xposition Yposition Zposition Xrotation Yrotation Zrotation
										JOINT mixamorig:RightHandThumb3
										{
											OFFSET -2.654831 -1.527969 1.512609
											CHANNELS 6 Xposition Yposition Zposition Xrotation Yrotation Zrotation
											JOINT mixamorig:RightHandThumb4
											{
												OFFSET -2.018814 -1.152008 1.108052
												CHANNELS 6 Xposition Yposition Zposition Xrotation Yrotation Zrotation
												End Site
												{
													OFFSET -188.809540 -114.533607 132.431396
												}
											}
										}
									}
								}
								JOINT mixamorig:RightHandIndex1
								{
									OFFSET -9.108284 -0.517868 2.259835
									CHANNELS 6 Xposition Yposition Zposition Xrotation Yrotation Zrotation
									JOINT mixamorig:RightHandIndex2
									{
										OFFSET -3.699989 0.000000 0.001215
										CHANNELS 6 Xposition Yposition Zposition Xrotation Yrotation Zrotation
										JOINT mixamorig:RightHandIndex3
										{
											OFFSET -2.850006 0.000031 -0.000522
											CHANNELS 6 Xposition Yposition Zposition Xrotation Yrotation Zrotation
											JOINT mixamorig:RightHandIndex4
											{
												OFFSET -2.772186 -0.000015 -0.000020
												CHANNELS 6 Xposition Yposition Zposition Xrotation Yrotation Zrotation
												End Site
												{
													OFFSET -277.218445 0.000000 -0.050231
												}
											}
										}
									}
								}
								JOINT mixamorig:RightHandMiddle1
								{
									OFFSET -9.532516 -0.000031 -0.000023
									CHANNELS 6 Xposition Yposition Zposition Xrotation Yrotation Zrotation
									JOINT mixamorig:RightHandMiddle2
									{
										OFFSET -3.700005 -0.000015 0.003713
										CHANNELS 6 Xposition Yposition Zposition Xrotation Yrotation Zrotation
										JOINT mixamorig:RightHandMiddle3
										{
											OFFSET -2.949974 0.000015 -0.002054
											CHANNELS 6 Xposition Yposition Zposition Xrotation Yrotation Zrotation
											JOINT mixamorig:RightHandMiddle4
											{
												OFFSET -2.946640 0.000000 -0.000156
												CHANNELS 6 Xposition Yposition Zposition Xrotation Yrotation Zrotation
												End Site
												{
													OFFSET -294.664337 0.000000 -0.113670
												}
											}
										}
									}
								}
								JOINT mixamorig:RightHandRing1
								{
									OFFSET -9.103600 -0.043076 -1.865134
									CHANNELS 6 Xposition Yposition Zposition Xrotation Yrotation Zrotation
									JOINT mixamorig:RightHandRing2
									{
										OFFSET -3.379288 0.000000 -0.001055
										CHANNELS 6 Xposition Yposition Zposition Xrotation Yrotation Zrotation
										JOINT mixamorig:RightHandRing3
										{
											OFFSET -2.889687 -0.000015 0.000379
											CHANNELS 6 Xposition Yposition Zposition Xrotation Yrotation Zrotation
											JOINT mixamorig:RightHandRing4
											{
												OFFSET -2.638809 -0.000015 0.000941
												CHANNELS 6 Xposition Yposition Zposition Xrotation Yrotation Zrotation
												End Site
												{
													OFFSET -263.880371 0.000000 0.516020
												}
											}
										}
									}
								}
								JOINT mixamorig:RightHandPinky1
								{
									OFFSET -8.076683 -0.486710 -3.806280
									CHANNELS 6 Xposition Yposition Zposition Xrotation Yrotation Zrotation
									JOINT mixamorig:RightHandPinky2
									{
										OFFSET -3.600014 -0.000015 -0.003747
										CHANNELS 6 Xposition Yposition Zposition Xrotation Yrotation Zrotation
										JOINT mixamorig:RightHandPinky3
										{
											OFFSET -2.099983 0.000000 -0.005739
											CHANNELS 6 Xposition Yposition Zposition Xrotation Yrotation Zrotation
											JOINT mixamorig:RightHandPinky4
											{
												OFFSET -2.115768 -0.000031 -0.003680
												CHANNELS 6 Xposition Yposition Zposition Xrotation Yrotation Zrotation
												End Site
												{
													OFFSET -211.577087 0.000000 -0.350686
												}
											}
										}
									}
								}
							}
						}
					}
				}
				JOINT mixamorig:LeftShoulder
				{
					OFFSET 4.570447 11.014725 -2.160855
					CHANNELS 6 Xposition Yposition Zposition Xrotation Yrotation Zrotation
					JOINT mixamorig:LeftArm
					{
						OFFSET 10.592371 -0.524597 -2.232119
						CHANNELS 6 Xposition Yposition Zposition Xrotation Yrotation Zrotation
						JOINT mixamorig:LeftForeArm
						{
							OFFSET 27.841532 -0.000031 0.000026
							CHANNELS 6 Xposition Yposition Zposition Xrotation Yrotation Zrotation
							JOINT mixamorig:LeftHand
							{
								OFFSET 28.328846 -0.000061 0.000022
								CHANNELS 6 Xposition Yposition Zposition Xrotation Yrotation Zrotation
								JOINT mixamorig:LeftHandThumb1
								{
									OFFSET 2.466141 -1.576172 2.681732
									CHANNELS 6 Xposition Yposition Zposition Xrotation Yrotation Zrotation
									JOINT mixamorig:LeftHandThumb2
									{
										OFFSET 3.217812 -1.872070 1.916482
										CHANNELS 6 Xposition Yposition Zposition Xrotation Yrotation Zrotation
										JOINT mixamorig:LeftHandThumb3
										{
											OFFSET 2.656029 -1.528778 1.514513
											CHANNELS 6 Xposition Yposition Zposition Xrotation Yrotation Zrotation
											JOINT mixamorig:LeftHandThumb4
											{
												OFFSET 2.020889 -1.154053 1.115139
												CHANNELS 6 Xposition Yposition Zposition Xrotation Yrotation Zrotation
												End Site
												{
													OFFSET 190.885437 -115.081749 130.048782
												}
											}
										}
									}
								}
								JOINT mixamorig:LeftHandIndex1
								{
									OFFSET 9.109314 -0.518021 2.259871
									CHANNELS 6 Xposition Yposition Zposition Xrotation Yrotation Zrotation
									JOINT mixamorig:LeftHandIndex2
									{
										OFFSET 3.699989 0.000000 -0.000322
										CHANNELS 6 Xposition Yposition Zposition Xrotation Yrotation Zrotation
										JOINT mixamorig:LeftHandIndex3
										{
											OFFSET 2.850006 0.000000 0.000352
											CHANNELS 6 Xposition Yposition Zposition Xrotation Yrotation Zrotation
											JOINT mixamorig:LeftHandIndex4
											{
												OFFSET 2.774864 -0.000031 -0.000027
												CHANNELS 6 Xposition Yposition Zposition Xrotation Yrotation Zrotation
												End Site
												{
													OFFSET 277.486267 0.000000 -0.009857
												}
											}
										}
									}
								}
								JOINT mixamorig:LeftHandMiddle1
								{
									OFFSET 9.533394 0.000061 0.000044
									CHANNELS 6 Xposition Yposition Zposition Xrotation Yrotation Zrotation
									JOINT mixamorig:LeftHandMiddle2
									{
										OFFSET 3.699989 -0.000015 -0.000231
										CHANNELS 6 Xposition Yposition Zposition Xrotation Yrotation Zrotation
										JOINT mixamorig:LeftHandMiddle3
										{
											OFFSET 2.949997 -0.000015 -0.000059
											CHANNELS 6 Xposition Yposition Zposition Xrotation Yrotation Zrotation
											JOINT mixamorig:LeftHandMiddle4
											{
												OFFSET 2.952896 0.000031 0.000063
												CHANNELS 6 Xposition Yposition Zposition Xrotation Yrotation Zrotation
												End Site
												{
													OFFSET 295.289337 0.000000 0.022810
												}
											}
										}
									}
								}
								JOINT mixamorig:LeftHandRing1
								{
									OFFSET 9.104523 -0.042999 -1.865074
									CHANNELS 6 Xposition Yposition Zposition Xrotation Yrotation Zrotation
									JOINT mixamorig:LeftHandRing2
									{
										OFFSET 3.150009 -0.000031 0.000043
										CHANNELS 6 Xposition Yposition Zposition Xrotation Yrotation Zrotation
										JOINT mixamorig:LeftHandRing3
										{
											OFFSET 2.949982 -0.000015 0.000040
											CHANNELS 6 Xposition Yposition Zposition Xrotation Yrotation Zrotation
											JOINT mixamorig:LeftHandRing4
											{
												OFFSET 2.644348 0.000000 0.000057
												CHANNELS 6 Xposition Yposition Zposition Xrotation Yrotation Zrotation
												End Site
												{
													OFFSET 264.434631 0.000000 0.012105
												}
											}
										}
									}
								}
								JOINT mixamorig:LeftHandPinky1
								{
									OFFSET 8.077789 -0.486847 -3.806259
									CHANNELS 6 Xposition Yposition Zposition Xrotation Yrotation Zrotation
									JOINT mixamorig:LeftHandPinky2
									{
										OFFSET 3.599953 0.000031 0.014727
										CHANNELS 6 Xposition Yposition Zposition Xrotation Yrotation Zrotation
										JOINT mixamorig:LeftHandPinky3
										{
											OFFSET 2.100021 0.000015 0.007705
											CHANNELS 6 Xposition Yposition Zposition Xrotation Yrotation Zrotation
											JOINT mixamorig:LeftHandPinky4
											{
												OFFSET 2.125504 0.000031 0.007517
												CHANNELS 6 Xposition Yposition Zposition Xrotation Yrotation Zrotation
												End Site
												{
													OFFSET 212.550781 0.000000 0.625752
												}
											}
										}
									}
								}
							}
						}
					}
				}
			}
		}
	}
	JOINT mixamorig:RightUpLeg
	{
		OFFSET -8.207787 -6.751648 -1.599560
		CHANNELS 6 Xposition Yposition Zposition Xrotation Yrotation Zrotation
		JOINT mixamorig:RightLeg
		{
			OFFSET -0.000002 -44.370117 0.345942
			CHANNELS 6 Xposition Yposition Zposition Xrotation Yrotation Zrotation
			JOINT mixamorig:RightFoot
			{
				OFFSET 0.000003 -44.423679 -3.043532
				CHANNELS 6 Xposition Yposition Zposition Xrotation Yrotation Zrotation
				JOINT mixamorig:RightToeBase
				{
					OFFSET -0.000002 -8.728671 10.710558
					CHANNELS 6 Xposition Yposition Zposition Xrotation Yrotation Zrotation
					JOINT mixamorig:RightToe_End
					{
						OFFSET -0.000001 -0.000679 9.278119
						CHANNELS 6 Xposition Yposition Zposition Xrotation Yrotation Zrotation
						End Site
						{
							OFFSET 0.000000 -0.067690 927.812134
						}
					}
				}
			}
		}
	}
	JOINT mixamorig:LeftUpLeg
	{
		OFFSET 8.207793 -6.751686 -1.599556
		CHANNELS 6 Xposition Yposition Zposition Xrotation Yrotation Zrotation
		JOINT mixamorig:LeftLeg
		{
			OFFSET -0.000004 -44.370014 0.346954
			CHANNELS 6 Xposition Yposition Zposition Xrotation Yrotation Zrotation
			JOINT mixamorig:LeftFoot
			{
				OFFSET -0.000001 -44.423672 -3.044401
				CHANNELS 6 Xposition Yposition Zposition Xrotation Yrotation Zrotation
				JOINT mixamorig:LeftToeBase
				{
					OFFSET -0.000002 -8.728669 10.710558
					CHANNELS 6 Xposition Yposition Zposition Xrotation Yrotation Zrotation
					JOINT mixamorig:LeftToe_End
					{
						OFFSET -0.000003 -0.000679 9.278133
						CHANNELS 6 Xposition Yposition Zposition Xrotation Yrotation Zrotation
						End Site
						{
							OFFSET 0.000000 -0.068021 927.813477
						}
					}
				}
			}
		}
	}
}
MOTION
Frames: 3
Frame Time: 0.033333
0.000006 104.270477 1.554256 0.000010 0.000003 -0.000113 -0.000005 10.181587 0.131522 0.000001 -0.000003 0.000084 -0.000000 9.893967 -1.470711 0.000001 0.000000 -0.000000 -0.000000 9.220802 -1.370642 0.000000 -0.000000 -0.000000 0.000001 16.740433 -2.049030 0.000000 -0.000000 -0.000000 0.000000 9.617859 1.685014 0.000000 0.000000 0.000000 0.000002 22.037384 7.501101 0.000000 -0.000000 0.000000 -4.569968 11.014880 -2.160881 0.000008 0.000001 -0.000038 -10.592869 -0.524784 -2.231863 78.681109 34.006552 -28.142654 -27.841518 0.000009 0.000548 -53.361085 107.524451 68.873722 -28.328810 0.000021 0.000031 -0.000323 -0.000046 0.000006 -2.464419 -1.573721 2.682316 -50.696526 -171.496023 -17.992337 -3.215263 -1.872550 1.924639 151.329644 32.619044 14.105860 -2.654971 -1.527901 1.513068 147.748589 27.229874 -32.612794 -2.018834 -1.151999 1.108070 -0.000004 -0.000001 0.000002 -9.108368 -0.517564 2.260128 100.456674 16.724159 -20.086519 -3.700074 0.000312 0.001526 96.156182 15.525314 -17.237898 -2.850073 0.000358 -0.000252 96.710301 12.750145 -14.321569 -2.772166 -0.000001 -0.000020 0.000000 0.000000 0.000001 -9.532591 0.000272 0.000270 99.163760 16.647321 -19.663691 -3.700079 0.000309 0.003994 98.667034 14.140335 -16.317351 -2.950052 0.000341 -0.001780 99.608897 12.225053 -14.438335 -2.946618 0.000001 -0.000154 -0.000000 -0.000000 0.000000 -9.103691 -0.042771 -1.864831 97.146894 19.007633 -21.433072 -3.379357 0.000306 -0.000780 98.944463 12.204051 -14.276186 -2.889772 0.000338 0.000677 102.420900 7.958802 -9.951202 -2.638812 0.000001 0.000939 -0.000000 -0.000001 0.000001 -8.076742 -0.486386 -3.806031 85.019715 18.864484 -17.176059 -3.600052 0.000276 -0.003511 89.144678 10.653611 -10.137041 -2.100017 0.000310 -0.005485 91.643551 6.112997 -6.063352 -2.115784 -0.000056 -0.003680 0.000002 -0.000000 -0.000003 4.570446 11.014691 -2.160851 -0.000018 0.000010 -0.000021 10.592401 -0.524471 -2.232371 74.143869 -12.424059 9.402577 27.841816 0.000085 -0.000236 101.046461 -69.859653 80.589873 28.328854 -0.000029 0.000018 0.000020 -0.000089 0.000000 2.465892 -1.576092 2.681895 -51.896570 172.073816 22.552124 3.217787 -1.871742 1.916350 152.347178 -31.022009 -1.813058 2.656107 -1.528598 1.514441 141.446237 -27.926398 36.548950 2.020902 -1.154083 1.115145 -0.000000 0.000002 0.000004 9.109392 -0.517857 2.259718 82.519969 -14.484232 12.711621 3.700020 0.000148 -0.000463 79.235365 -15.361773 12.754796 2.850044 0.000154 0.000201 77.186773 -13.193845 10.545853 2.774868 -0.000029 -0.000030 0.000001 0.000000 0.000002 9.533472 0.000212 -0.000102 82.346311 -12.673512 11.087437 3.700049 0.000169 -0.000380 85.969351 -14.386313 13.414935 2.950064 0.000146 -0.000195 85.843416 -17.915178 16.681643 2.952873 -0.000031 0.000063 0.000002 0.000001 -0.000000 9.104591 -0.042851 -1.865236 82.294996 -12.416259 10.861213 3.150054 0.000199 -0.000100 89.145867 -13.174361 12.982909 2.950041 0.000175 -0.000063 90.025185 -15.213678 15.222110 2.644333 0.000031 0.000057 -0.000001 0.000001 -0.000000 8.077848 -0.486730 -3.806396 73.408121 -15.172068 11.778224 3.600005 0.000160 0.014551 74.365180 -12.407933 9.814470 2.100026 0.000170 0.007543 76.882727 -12.071600 9.981037 2.125494 -0.000001 0.007517 -0.000001 0.000003 0.000001 -8.207786 -6.751667 -1.599560 -0.077001 -0.000003 0.000080 -0.000002 -44.370110 0.345938 0.153719 -0.000000 -0.000000 0.000000 -44.423679 -3.043532 -0.076700 0.000000 -0.000002 -0.000006 -8.728667 10.710559 -0.000009 -0.000000 -0.000000 -0.000001 -0.000679 9.278123 0.000000 -0.000000 -0.000000 8.207792 -6.751710 -1.599556 -0.074518 -0.000003 0.000081 -0.000002 -44.370014 0.346960 0.148822 0.000002 0.000000 -0.000001 -44.423664 -3.044403 -0.074314 0.000000 -0.000002 -0.000004 -8.728671 10.710558 0.000007 -0.000000 -0.000000 0.000000 -0.000680 9.278137 -0.000000 0.000000 -0.000001 
0.000006 104.270477 1.554256 0.000010 0.000003 -0.000113 -0.000005 10.181587 0.131522 0.000001 -0.000003 0.000084 -0.000000 9.893967 -1.470711 0.000001 0.000000 -0.000000 -0.000000 9.220802 -1.370642 0.000000 -0.000000 -0.000000 0.000001 16.740433 -2.049030 0.000000 -0.000000 -0.000000 0.000000 9.617859 1.685014 0.000000 0.000000 0.000000 0.000002 22.037384 7.501101 0.000000 -0.000000 0.000000 -4.569968 11.014880 -2.160881 0.000008 0.000001 -0.000038 -10.592868 -0.524787 -2.231868 78.404998 34.557854 -28.473197 -27.841515 0.000015 0.000553 -50.824353 105.490250 63.983682 -28.328833 0.000021 0.000027 -0.000318 -0.000043 0.000006 -2.464451 -1.573691 2.682273 -55.177683 -173.916219 -32.867365 -3.215252 -1.872543 1.924630 148.911716 32.163378 14.446689 -2.654962 -1.527845 1.513059 146.133796 27.888876 -27.973130 -2.018823 -1.151999 1.108062 -0.000001 -0.000004 0.000004 -9.108380 -0.517543 2.260127 100.096265 14.893243 -17.791917 -3.700057 0.000321 0.001509 97.240645 14.252894 -16.127441 -2.850105 0.000370 -0.000256 97.165158 12.038857 -13.631731 -2.772147 -0.000016 -0.000015 0.000001 -0.000000 -0.000001 -9.532577 0.000273 0.000269 98.295308 14.798718 -17.243069 -3.700057 0.000312 0.004005 99.762979 13.468885 -15.840727 -2.950063 0.000330 -0.001768 101.758323 12.297750 -15.082796 -2.946625 -0.000015 -0.000156 -0.000000 0.000001 -0.000000 -9.103714 -0.042772 -1.864866 96.359414 16.658476 -18.536304 -3.379334 0.000322 -0.000791 97.931403 10.448843 -12.014989 -2.889738 0.000347 0.000658 103.251334 7.537877 -9.569051 -2.638830 -0.000028 0.000942 0.000001 -0.000000 -0.000001 -8.076750 -0.486402 -3.806029 85.309910 18.348337 -16.785518 -3.600050 0.000277 -0.003519 87.596172 8.675456 -7.978557 -2.100004 0.000329 -0.005485 89.930669 4.040599 -3.821695 -2.115783 -0.000056 -0.003678 -0.000001 0.000000 -0.000000 4.570446 11.014691 -2.160851 -0.000018 0.000010 -0.000021 10.592412 -0.524468 -2.232360 72.841830 -16.827926 12.456937 27.841825 0.000069 -0.000196 104.037114 -72.503517 86.407262 28.328815 -0.000028 0.000026 0.000023 -0.000089 0.000000 2.466026 -1.576161 2.681908 -36.253657 163.040850 -18.588134 3.217819 -1.871727 1.916375 160.610778 -29.900362 7.997374 2.656113 -1.528640 1.514470 143.590015 -26.561590 49.854794 2.020895 -1.154083 1.115147 -0.000002 0.000006 0.000004 9.109384 -0.517873 2.259739 83.808272 -18.569244 16.680550 3.700040 0.000142 -0.000476 80.127312 -12.890175 10.868241 2.850060 0.000172 0.000217 79.579736 -10.539461 8.784513 2.774878 -0.000030 -0.000025 -0.000000 0.000001 0.000001 9.533467 0.000220 -0.000101 83.839609 -17.026936 15.301727 3.700023 0.000176 -0.000373 85.726633 -11.104012 10.307261 2.950058 0.000178 -0.000192 87.005579 -11.830079 11.234154 2.952865 -0.000031 0.000068 -0.000000 -0.000000 0.000000 9.104600 -0.042854 -1.865237 83.455199 -17.016943 15.200810 3.150033 0.000185 -0.000103 88.285208 -11.235458 10.907910 2.950023 0.000175 -0.000091 90.020971 -10.547792 10.553366 2.644318 0.000015 0.000060 0.000000 -0.000000 -0.000000 8.077854 -0.486741 -3.806399 74.744283 -19.116313 15.124609 3.600003 0.000164 0.014581 75.085793 -15.384781 12.257852 2.100044 0.000174 0.007543 78.189998 -11.869971 10.050049 2.125481 0.000001 0.007511 0.000000 0.000002 -0.000000 -8.207786 -6.751667 -1.599560 -0.077001 -0.000003 0.000080 -0.000002 -44.370110 0.345938 0.153719 -0.000000 -0.000000 0.000000 -44.423679 -3.043532 -0.076700 0.000000 -0.000002 -0.000006 -8.728667 10.710559 -0.000009 -0.000000 -0.000000 -0.000001 -0.000679 9.278123 0.000000 -0.000000 -0.000000 8.207792 -6.751710 -1.599556 -0.074518 -0.000003 0.000081 -0.000002 -44.370014 0.346960 0.148822 0.000002 0.000000 -0.000001 -44.423664 -3.044403 -0.074314 0.000000 -0.000002 -0.000004 -8.728671 10.710558 0.000007 -0.000000 -0.000000 0.000000 -0.000680 9.278137 -0.000000 0.000000 -0.000001 
0.000006 104.270477 1.554256 0.000010 0.000003 -0.000113 -0.000005 10.181587 0.131522 0.000001 -0.000003 0.000084 -0.000000 9.893967 -1.470711 0.000001 0.000000 -0.000000 -0.000000 9.220802 -1.370642 0.000000 -0.000000 -0.000000 0.000001 16.740433 -2.049030 0.000000 -0.000000 -0.000000 0.000000 9.617859 1.685014 0.000000 0.000000 0.000000 0.000002 22.037384 7.501101 0.000000 -0.000000 0.000000 -4.569968 11.014880 -2.160881 0.000008 0.000001 -0.000038 -10.592856 -0.524802 -2.231840 77.354529 40.520258 -32.922810 -27.841520 0.000003 0.000563 -49.287427 104.114233 60.944446 -28.328831 0.000022 0.000030 -0.000322 -0.000045 0.000007 -2.464425 -1.573710 2.682291 -52.767607 -168.464321 -23.618280 -3.215262 -1.872555 1.924638 148.694256 31.941308 12.975690 -2.654962 -1.527857 1.513047 145.211966 28.135504 -26.257930 -2.018834 -1.152014 1.108055 -0.000004 -0.000003 0.000002 -9.108369 -0.517557 2.260145 103.431167 15.076261 -19.092682 -3.700076 0.000309 0.001522 97.912674 13.585996 -15.554605 -2.850092 0.000360 -0.000263 96.242959 11.136596 -12.410765 -2.772170 -0.000016 -0.000014 -0.000000 -0.000000 -0.000000 -9.532598 0.000276 0.000256 100.689556 14.371847 -17.465770 -3.700069 0.000322 0.004014 101.385183 12.482242 -15.100928 -2.950056 0.000335 -0.001789 101.693587 11.542530 -14.143206 -2.946623 -0.000015 -0.000147 0.000000 -0.000005 -0.000000 -9.103701 -0.042752 -1.864836 98.449780 15.926060 -18.375109 -3.379341 0.000315 -0.000773 100.772823 10.345851 -12.505508 -2.889762 0.000340 0.000693 104.417535 7.715805 -9.999749 -2.638818 -0.000015 0.000938 0.000000 -0.000002 0.000000 -8.076748 -0.486389 -3.806001 87.040830 18.226391 -17.177992 -3.600042 0.000282 -0.003494 91.541979 9.497940 -9.386389 -2.099999 0.000323 -0.005478 93.951533 5.055017 -5.182718 -2.115769 -0.000036 -0.003677 -0.000002 -0.000002 -0.000003 4.570446 11.014691 -2.160851 -0.000018 0.000010 -0.000021 10.592433 -0.524469 -2.232382 72.561102 -24.163884 17.859276 27.841829 0.000043 -0.000171 106.406185 -75.731287 92.216133 28.328838 -0.000028 0.000025 0.000024 -0.000088 0.000001 2.466125 -1.576171 2.681898 -20.940303 157.331522 -46.555877 3.217805 -1.871744 1.916368 161.350843 -30.101771 7.194931 2.656100 -1.528650 1.514463 145.080595 -26.300104 47.607897 2.020884 -1.154074 1.115146 -0.000002 0.000006 0.000002 9.109374 -0.517865 2.259737 87.034280 -19.176914 18.213662 3.700046 0.000158 -0.000470 83.811728 -12.987097 11.679980 2.850030 0.000196 0.000204 83.098533 -10.352326 9.179066 2.774879 -0.000046 -0.000024 0.000001 0.000001 0.000000 9.533467 0.000198 -0.000097 85.475139 -17.106999 15.815498 3.700041 0.000185 -0.000376 87.590879 -10.571687 10.136069 2.950052 0.000179 -0.000205 88.614403 -11.430497 11.161938 2.952873 -0.000014 0.000062 0.000003 -0.000001 0.000000 9.104590 -0.042851 -1.865221 85.374441 -16.770037 15.486281 3.150044 0.000212 -0.000098 89.743666 -11.280384 11.232152 2.950015 0.000192 -0.000084 91.311474 -10.723156 10.971736 2.644325 0.000043 0.000059 -0.000001 -0.000000 -0.000000 8.077841 -0.486727 -3.806413 77.142356 -18.526716 15.304422 3.600003 0.000158 0.014570 77.109038 -15.638222 12.912095 2.100034 0.000175 0.007554 79.723095 -12.182150 10.589045 2.125511 0.000000 0.007517 0.000000 0.000004 -0.000000 -8.207786 -6.751667 -1.599560 -0.077001 -0.000003 0.000080 -0.000002 -44.370110 0.345938 0.153719 -0.000000 -0.000000 0.000000 -44.423679 -3.043532 -0.076700 0.000000 -0.000002 -0.000006 -8.728667 10.710559 -0.000009 -0.000000 -0.000000 -0.000001 -0.000679 9.278123 0.000000 -0.000000 -0.000000 8.207792 -6.751710 -1.599556 -0.074518 -0.000003 0.000081 -0.000002 -44.370014 0.346960 0.148822 0.000002 0.000000 -0.000001 -44.423664 -3.044403 -0.074314 0.000000 -0.000002 -0.000004 -8.728671 10.710558 0.000007 -0.000000 -0.000000 0.000000 -0.000680 9.278137 -0.000000 0.000000 -0.000001 
